<svg xmlns="http://www.w3.org/2000/svg" xmlns:xlink="http://www.w3.org/1999/xlink" width="500" zoomAndPan="magnify" viewBox="0 0 375 374.999991" height="500" preserveAspectRatio="xMidYMid meet" version="1.0"><defs><clipPath id="217fb103f4"><path d="M 0 48.511719 L 375 48.511719 L 375 290 L 0 290 Z M 0 48.511719 " clip-rule="nonzero"/></clipPath></defs><g clip-path="url(#217fb103f4)"><path fill="#ff914d" d="M 156.578125 114.785156 L 185.425781 88.371094 L 352.160156 237.628906 L 352.160156 48.511719 L 374.921875 48.511719 L 374.921875 288.5625 L 185.597656 119.085938 L 172.996094 130.621094 Z M 138.640625 162.074219 L 122.054688 146.402344 L 22.839844 237.238281 L 22.839844 48.511719 L 0.078125 48.511719 L 0.078125 288.953125 Z M 168.453125 173.03125 L 42.058594 289.898438 L 75.585938 289.898438 L 185.09375 188.644531 L 293.046875 289.898438 L 326.320312 289.898438 L 201.855469 173.148438 L 216.082031 160 L 198.894531 144.886719 L 185.214844 157.542969 L 68.976562 48.511719 L 35.695312 48.511719 Z M 336.660156 48.511719 L 303.128906 48.511719 L 232.320312 113.980469 L 249.230469 129.347656 Z M 336.660156 48.511719 " fill-opacity="1" fill-rule="nonzero"/></g></svg>